<svg width="16" height="16" viewBox="0 0 16 16" fill="none" xmlns="http://www.w3.org/2000/svg">
<g clip-path="url(#clip0_2700_7902)">
<path d="M8.78465 7.62666H15.7744C15.8862 7.62666 15.9422 7.62666 15.9422 7.51435V7.28972C15.9422 7.23356 15.9422 7.1774 15.8303 7.1774C12.5312 6.27888 9.95893 3.75179 9.12016 0.438487L8.89649 0.326172H8.72873C8.67282 0.326172 8.6169 0.38233 8.6169 0.494645V7.51435C8.6169 7.57051 8.6169 7.62666 8.72873 7.62666H8.78465ZM8.78465 15.8257H9.00832L9.12016 15.7134C10.0148 12.4001 12.5312 9.81681 15.8303 8.97445L15.9422 8.80597V8.6375C15.9422 8.58134 15.8862 8.46903 15.7744 8.46903H8.78465L8.67282 8.6375V15.6572C8.67282 15.7695 8.67282 15.8257 8.78465 15.8257ZM7.49854 15.8257H7.66629C7.72221 15.8257 7.77813 15.7695 7.77813 15.6572V8.6375C7.77813 8.58134 7.77813 8.46903 7.66629 8.46903H0.676543C0.564707 8.46903 0.508789 8.58134 0.508789 8.6375V8.86213C0.508789 8.91829 0.508789 8.97445 0.620625 8.97445C3.91979 9.81681 6.49201 12.4001 7.33078 15.7134L7.49854 15.8257ZM0.676543 7.62666H7.66629C7.72221 7.62666 7.77813 7.62666 7.77813 7.51435V0.494645C7.77813 0.38233 7.77813 0.326172 7.66629 0.326172H7.44262C7.3867 0.326172 7.33078 0.326172 7.33078 0.438487C6.4361 3.69563 3.86387 6.33504 0.620625 7.1774L0.508789 7.34588V7.51435C0.508789 7.57051 0.564707 7.62666 0.676543 7.62666Z" fill="white"/>
</g>
<defs>
<clipPath id="clip0_2700_7902">
<rect width="16" height="16" fill="white"/>
</clipPath>
</defs>
</svg>
