<svg width="16" height="16" viewBox="0 0 16 16" fill="none" xmlns="http://www.w3.org/2000/svg">
<path d="M3.61825 2.06315C5.39148 3.39438 7.29878 6.09355 7.99905 7.54209C8.69937 6.09366 10.6066 3.39435 12.3798 2.06315C13.6593 1.10259 15.7324 0.359367 15.7324 2.72435C15.7324 3.19667 15.4616 6.69209 15.3028 7.25955C14.7507 9.23246 12.7389 9.73566 10.9494 9.4311C14.0774 9.96347 14.8732 11.7269 13.1547 13.4903C9.89094 16.8394 8.46374 12.65 8.09787 11.5765C8.03083 11.3797 7.99946 11.2877 7.999 11.366C7.99854 11.2877 7.96717 11.3797 7.90013 11.5765C7.53442 12.65 6.10725 16.8395 2.84333 13.4903C1.12482 11.7269 1.92053 9.96337 5.04858 9.4311C3.25904 9.73566 1.24725 9.23246 0.695252 7.25955C0.53642 6.69203 0.265625 3.19662 0.265625 2.72435C0.265625 0.359367 2.33874 1.10259 3.61816 2.06315H3.61825Z" fill="white"/>
</svg>
