<svg width="1440" height="1000" viewBox="0 0 1440 1000" fill="none" xmlns="http://www.w3.org/2000/svg">
<g clip-path="url(#clip0_2709_7914)">
<g filter="url(#filter0_f_2709_7914)">
<path d="M1367.93 665.993C1463.85 533 1413.58 404.443 1517.28 276.993C1726.65 19.6633 1787.81 917.185 1517.28 1114.49C1312.64 1263.74 847.552 1361.59 860.255 1114.49C869.577 933.159 1098.12 945.576 1229.47 815.493C1286.1 759.411 1321.58 730.255 1367.93 665.993Z" fill="#00DD81"/>
</g>
<g filter="url(#filter1_f_2709_7914)">
<path d="M126.34 772.911C19.2055 720.933 31.0962 580.93 -86.2426 557.911C-288.325 518.266 -181.042 893.666 -86.2426 1071.91C96.8094 1416.09 1039.16 1445.47 933.025 1071.91C888.204 914.154 823.19 784.964 659.338 748.411C540.386 721.874 477.371 820.904 355.355 818.911C264.049 817.419 208.075 812.565 126.34 772.911Z" fill="#0038FF"/>
</g>
<g filter="url(#filter2_f_2709_7914)">
<path d="M126.34 820.911C19.2055 768.933 31.0962 628.93 -86.2426 605.911C-288.325 566.266 -181.042 941.666 -86.2426 1119.91C96.8094 1464.09 1039.16 1493.47 933.025 1119.91C888.204 962.154 823.19 832.964 659.338 796.411C540.386 769.874 477.371 868.904 355.355 866.911C264.049 865.419 208.075 860.565 126.34 820.911Z" fill="#FF00F5"/>
</g>
<g filter="url(#filter3_f_2709_7914)">
<ellipse cx="930" cy="1058.5" rx="507" ry="326.5" fill="#FF4545"/>
</g>
<g filter="url(#filter4_f_2709_7914)">
<ellipse cx="832" cy="1059" rx="393" ry="251" fill="#FF50D4"/>
</g>
<g filter="url(#filter5_f_2709_7914)">
<ellipse cx="1305.5" cy="957.5" rx="191.5" ry="176.5" fill="#FFF181"/>
</g>
</g>
<defs>
<filter id="filter0_f_2709_7914" x="510" y="-119" width="1537.96" height="1734.32" filterUnits="userSpaceOnUse" color-interpolation-filters="sRGB">
<feFlood flood-opacity="0" result="BackgroundImageFix"/>
<feBlend mode="normal" in="SourceGraphic" in2="BackgroundImageFix" result="shape"/>
<feGaussianBlur stdDeviation="175" result="effect1_foregroundBlur_2709_7914"/>
</filter>
<filter id="filter1_f_2709_7914" x="-551" y="205" width="1842.33" height="1486.18" filterUnits="userSpaceOnUse" color-interpolation-filters="sRGB">
<feFlood flood-opacity="0" result="BackgroundImageFix"/>
<feBlend mode="normal" in="SourceGraphic" in2="BackgroundImageFix" result="shape"/>
<feGaussianBlur stdDeviation="175" result="effect1_foregroundBlur_2709_7914"/>
</filter>
<filter id="filter2_f_2709_7914" x="-551" y="253" width="1842.33" height="1486.18" filterUnits="userSpaceOnUse" color-interpolation-filters="sRGB">
<feFlood flood-opacity="0" result="BackgroundImageFix"/>
<feBlend mode="normal" in="SourceGraphic" in2="BackgroundImageFix" result="shape"/>
<feGaussianBlur stdDeviation="175" result="effect1_foregroundBlur_2709_7914"/>
</filter>
<filter id="filter3_f_2709_7914" x="73" y="382" width="1714" height="1353" filterUnits="userSpaceOnUse" color-interpolation-filters="sRGB">
<feFlood flood-opacity="0" result="BackgroundImageFix"/>
<feBlend mode="normal" in="SourceGraphic" in2="BackgroundImageFix" result="shape"/>
<feGaussianBlur stdDeviation="175" result="effect1_foregroundBlur_2709_7914"/>
</filter>
<filter id="filter4_f_2709_7914" x="289" y="658" width="1086" height="802" filterUnits="userSpaceOnUse" color-interpolation-filters="sRGB">
<feFlood flood-opacity="0" result="BackgroundImageFix"/>
<feBlend mode="normal" in="SourceGraphic" in2="BackgroundImageFix" result="shape"/>
<feGaussianBlur stdDeviation="75" result="effect1_foregroundBlur_2709_7914"/>
</filter>
<filter id="filter5_f_2709_7914" x="864" y="531" width="883" height="853" filterUnits="userSpaceOnUse" color-interpolation-filters="sRGB">
<feFlood flood-opacity="0" result="BackgroundImageFix"/>
<feBlend mode="normal" in="SourceGraphic" in2="BackgroundImageFix" result="shape"/>
<feGaussianBlur stdDeviation="125" result="effect1_foregroundBlur_2709_7914"/>
</filter>
<clipPath id="clip0_2709_7914">
<rect width="1440" height="1000" fill="white"/>
</clipPath>
</defs>
</svg>
